Coordinates
version=1
nRows=9
nColumns=36
inDegrees=yes

Units are S.I. units (second, meters, Newtons, ...)
If the header above contains a line with 'inDegrees', this indicates whether rotational values are in degrees (yes) or radians (no).

endheader
time	pelvis_tilt	pelvis_list	pelvis_rotation	pelvis_tx	pelvis_ty	pelvis_tz	hip_flexion_r	hip_adduction_r	hip_rotation_r	knee_angle_r	knee_angle_r_beta	ankle_angle_r	subtalar_angle_r	mtp_angle_r	hip_flexion_l	hip_adduction_l	hip_rotation_l	knee_angle_l	knee_angle_l_beta	ankle_angle_l	subtalar_angle_l	mtp_angle_l	lumbar_extension	lumbar_bending	lumbar_rotation	arm_flex_r	arm_add_r	arm_rot_r	elbow_flex_r	pro_sup_r	arm_flex_l	arm_add_l	arm_rot_l	elbow_flex_l	pro_sup_l
      0.00000000	      3.18851977	     -1.40928529	      2.74647704	     -0.90762782	      1.25521906	     -0.08210213	     -6.79924951	      0.19344215	      0.47417422	      7.47707568	      0.13049959	      8.77667939	    -14.51343560	     -6.09381232	     -7.04623321	     -3.01152652	      3.91443033	      5.04566758	      0.08806351	     14.24205433	     -2.97482812	     -6.09381232	     -7.92529510	      4.18581763	      0.45983320	      3.20071521	     -7.31010278	     19.28564750	     22.38233834	     71.39600741	      2.42158434	     -4.42953317	     30.33449808	     23.00977261	     61.97114639
      0.00416670	      2.34538907	     -1.34059680	      2.26241648	     -0.90736762	      1.25320239	     -0.08217466	     -5.53701200	      0.09559194	      0.26158048	      8.26136833	      0.14418808	     12.51691714	    -11.25994306	     -6.52160330	     -5.79142783	     -2.27530767	      5.76947643	      5.46422469	      0.09536871	     13.00897030	     -4.39672473	     -6.52160330	     -6.40448483	      4.39904650	      0.49035784	      2.92460489	     -6.65466968	     15.49734181	     22.42191823	     70.03439580	      1.75226909	     -3.65869080	     27.62215944	     22.83850257	     62.06139930
      0.00833330	      2.03010370	     -0.79569699	      1.81691974	     -0.90110277	      1.25210799	     -0.07615079	     -5.79389842	     -0.43782073	     -0.07906649	      7.62468109	      0.13307579	     13.40331510	    -10.26792884	     -6.92064830	     -5.73116269	     -1.82553137	      5.72877757	      5.57757349	      0.09734702	     12.81202726	     -4.48291145	     -6.92064830	     -5.61426236	      3.34729324	      1.26758369	      1.90703890	     -5.05761213	      7.45717458	     22.77416441	     78.97637651	      1.53990909	     -3.79006399	     25.02450768	     22.62795457	     68.52126318
      0.01250000	      2.77624094	     -0.53744867	      1.40450191	     -0.90825844	      1.25375237	     -0.08043927	     -6.71780523	     -0.91600006	     -0.30548280	      7.21181252	      0.12586987	     13.99933809	     -9.44005483	     -6.94656323	     -7.08147299	     -1.38739376	      6.33742822	      4.60133378	      0.08030842	     12.28329014	     -5.10216220	     -6.94656323	     -6.81058214	      3.07918407	      1.72352313	      2.16534394	     -4.92822651	      6.78469026	     23.03810332	     78.79257162	      1.86207895	     -3.92880449	     25.03267798	     22.93033585	     68.61017605
      0.01666670	      3.41234997	     -0.59561862	      1.14829959	     -0.90848670	      1.25493678	     -0.07986201	     -7.62972399	     -0.92942780	     -0.13723012	      6.59758644	      0.11514961	     13.97898872	     -8.97604984	     -6.95273549	     -8.29052473	     -1.42174044	      6.54208090	      3.55164015	      0.06198781	     11.77760354	     -5.40233103	     -6.95273549	     -7.80524913	      3.24842647	      2.12439015	      2.35140874	     -5.06145432	      6.78837772	     23.45249461	     78.29427749	      2.16757056	     -3.92860633	     25.67626594	     23.13428798	     68.57516840
      0.02083330	      3.76141917	     -0.57749527	      0.90453478	     -0.90912736	      1.25602770	     -0.08002083	     -8.03214398	     -1.01228225	     -0.11147391	      6.37938112	      0.11134120	     14.00533477	     -8.73088928	     -7.05509664	     -8.83169551	     -1.30353618	      6.91175425	      3.10133144	      0.05412844	     11.43789917	     -5.90813647	     -7.05509664	     -8.47869827	      3.34665577	      2.63725491	      2.56703472	     -5.37690620	      7.82584330	     23.68249833	     76.85131076	      2.67198537	     -3.92817800	     27.51959989	     23.04102466	     68.20411939
      0.02500000	      4.07430227	     -0.64741368	      0.73846529	     -0.90907556	      1.25637028	     -0.07934907	     -8.20822692	     -0.99981385	     -0.16154114	      6.52129472	      0.11381806	     14.04158606	     -8.49850050	     -7.13813043	     -9.36871006	     -1.38118901	      6.90478411	      2.68269828	      0.04682192	     11.26022529	     -6.10218280	     -7.13813043	     -9.02302498	      3.52272988	      2.90950570	      2.86270304	     -5.65461850	      9.06826282	     23.71104817	     75.53824089	      3.04415369	     -3.82759572	     28.66923898	     22.91417818	     67.54196219
      0.02916670	      4.24798583	     -0.64901092	      0.68293636	     -0.90939519	      1.25678549	     -0.07963190	     -8.24997675	     -1.04609836	     -0.26450152	      6.78442282	      0.11841052	     13.87993905	     -8.71163090	     -7.23280091	     -9.53954738	     -1.34120293	      7.12912008	      2.60493606	      0.04546471	     10.97824950	     -6.67232033	     -7.23280091	     -9.43932526	      3.59411464	      3.05869036	      3.15134534	     -5.99032467	     10.85243868	     23.74095487	     73.70609684	      3.48339559	     -3.74918077	     29.86324709	     22.66149642	     66.58989451
      0.03333330	      4.34897532	     -0.67136371	      0.67807463	     -0.90944290	      1.25688686	     -0.07917761	     -8.45116587	     -1.01659238	     -0.22440200	      6.44717129	      0.11252437	     13.69496845	     -8.62109265	     -7.24879990	     -9.68569878	     -1.35406261	      7.19560336	      2.39695911	      0.04183483	     10.81284123	     -6.78062762	     -7.24879990	     -9.63428905	      3.66285906	      3.14492768	      3.23816679	     -6.08369036	     11.05254298	     23.72872834	     73.35656065	      3.63465119	     -3.66520264	     29.91458390	     22.61970455	     66.32811152
